<mxfile host="drawio-plugin" modified="2024-07-15T16:59:25.455Z" agent="Mozilla/5.0 (Windows NT 10.0; Win64; x64) AppleWebKit/537.36 (KHTML, like Gecko) Chrome/122.0.0.0 Safari/537.36" version="22.1.22" etag="VCGLD54NvuMTpssJ4SQt" type="embed">
  <diagram id="5Xk-EIqYQWEQmgQqHAUk" name="Page-1">
    <mxGraphModel dx="3485" dy="2245" grid="0" gridSize="10" guides="1" tooltips="1" connect="1" arrows="1" fold="1" page="1" pageScale="1" pageWidth="827" pageHeight="1169" background="none" math="0" shadow="0">
      <root>
        <mxCell id="0" />
        <mxCell id="1" parent="0" />
        <mxCell id="133" value="&lt;font style=&quot;font-size: 15px;&quot;&gt;modelos&lt;/font&gt;" style="shape=umlFrame;whiteSpace=wrap;html=1;pointerEvents=0;width=90;height=20;labelBackgroundColor=none;rounded=0;fillColor=#B2C9AB;strokeColor=#788AA3;fontColor=#46495D;" vertex="1" parent="1">
          <mxGeometry x="-1575" y="-1100" width="660" height="440" as="geometry" />
        </mxCell>
        <mxCell id="134" value="&lt;font style=&quot;font-size: 15px;&quot;&gt;dominio&lt;/font&gt;" style="shape=umlFrame;whiteSpace=wrap;html=1;pointerEvents=0;width=80;height=20;labelBackgroundColor=none;rounded=0;fillColor=#B2C9AB;strokeColor=#788AA3;fontColor=#46495D;" vertex="1" parent="1">
          <mxGeometry x="-1585" y="-1130" width="690" height="490" as="geometry" />
        </mxCell>
        <mxCell id="143" value="" style="group;labelBackgroundColor=none;rounded=0;fontColor=#46495D;" vertex="1" connectable="0" parent="1">
          <mxGeometry x="-1560" y="-1070" width="240" height="175" as="geometry" />
        </mxCell>
        <mxCell id="136" value="" style="swimlane;startSize=0;labelBackgroundColor=none;rounded=0;fillColor=#B2C9AB;strokeColor=#788AA3;fontColor=#46495D;" vertex="1" parent="143">
          <mxGeometry width="233.1428571428571" height="175" as="geometry" />
        </mxCell>
        <mxCell id="135" value="&lt;font style=&quot;font-size: 17px;&quot;&gt;&amp;nbsp;── foguete/&lt;br&gt;│   ├── &lt;span class=&quot;hljs-strong&quot;&gt;__init__&lt;/span&gt;.py&lt;br&gt;│   ├── aerodinamica/&lt;br&gt;│   ├── estrutura/&lt;br&gt;│   ├── ModeloDinamica.py&lt;br&gt;│   ├── propulsao/&lt;br&gt;│   └── veiculo&lt;span class=&quot;hljs-emphasis&quot;&gt;_lancador/&lt;/span&gt;&lt;/font&gt;" style="text;whiteSpace=wrap;html=1;labelBackgroundColor=none;rounded=0;fontColor=#46495D;" vertex="1" parent="143">
          <mxGeometry x="13.714285714285715" y="4.069767441860465" width="226.28571428571428" height="170.93023255813952" as="geometry" />
        </mxCell>
        <mxCell id="145" value="" style="swimlane;startSize=0;labelBackgroundColor=none;rounded=0;fillColor=#B2C9AB;strokeColor=#788AA3;fontColor=#46495D;" vertex="1" parent="1">
          <mxGeometry x="-1300" y="-1070" width="360" height="100" as="geometry" />
        </mxCell>
        <mxCell id="142" value="&lt;font style=&quot;font-size: 17px;&quot;&gt;&lt;span class=&quot;hljs-emphasis&quot;&gt;&amp;nbsp;── manobras/&lt;br&gt;│   ├── &lt;span class=&quot;hljs-strong&quot;&gt;__init__&lt;/span&gt;.py&lt;br&gt;│   └── parametros_&lt;/span&gt;manobra&lt;span class=&quot;hljs-emphasis&quot;&gt;_adquire_&lt;/span&gt;gso.py&lt;/font&gt;" style="text;whiteSpace=wrap;html=1;labelBackgroundColor=none;rounded=0;fontColor=#46495D;" vertex="1" parent="145">
          <mxGeometry x="5" y="15" width="350" height="70" as="geometry" />
        </mxCell>
        <mxCell id="148" value="" style="group;labelBackgroundColor=none;rounded=0;fontColor=#46495D;" vertex="1" connectable="0" parent="1">
          <mxGeometry x="-1150" y="-870" width="220" height="160" as="geometry" />
        </mxCell>
        <mxCell id="137" value="&lt;font style=&quot;font-size: 17px;&quot;&gt;&amp;nbsp;── orbitas/&lt;br&gt;│   ├── &lt;span class=&quot;hljs-strong&quot;&gt;__init__&lt;/span&gt;.py&lt;br&gt;│   ├── ConstrutorOrbita.py&lt;br&gt;│   ├── manobras.py&lt;br&gt;│   ├── Orbita.py&lt;br&gt;│   ├── propagacao/&lt;br&gt;│   └── utilidades/&lt;br&gt;&lt;br&gt;&lt;/font&gt;" style="text;whiteSpace=wrap;html=1;labelBackgroundColor=none;rounded=0;fontColor=#46495D;" vertex="1" parent="148">
          <mxGeometry x="7.586206896551724" width="212.41379310344826" height="152" as="geometry" />
        </mxCell>
        <mxCell id="144" value="" style="swimlane;startSize=0;labelBackgroundColor=none;rounded=0;fillColor=#B2C9AB;strokeColor=#788AA3;fontColor=#46495D;" vertex="1" parent="148">
          <mxGeometry width="220" height="160" as="geometry" />
        </mxCell>
        <mxCell id="150" value="" style="group;labelBackgroundColor=none;rounded=0;fontColor=#46495D;" vertex="1" connectable="0" parent="1">
          <mxGeometry x="-1560" y="-870" width="404" height="193" as="geometry" />
        </mxCell>
        <mxCell id="139" value="" style="swimlane;startSize=0;labelBackgroundColor=none;rounded=0;fillColor=#B2C9AB;strokeColor=#788AA3;fontColor=#46495D;" vertex="1" parent="150">
          <mxGeometry y="0.5" width="395" height="192.5" as="geometry" />
        </mxCell>
        <mxCell id="141" value="&lt;font style=&quot;font-size: 17px;&quot;&gt;&amp;nbsp;── planeta/&lt;br&gt;&lt;span class=&quot;hljs-code&quot;&gt;│&amp;nbsp; ├── __init__.py&lt;br&gt;│&amp;nbsp; ├── BaseDeLancamento.py&lt;br&gt;│&amp;nbsp; ├── ConstrutorBaseDeLancamento.py&lt;br&gt;│&amp;nbsp; ├── ConstrutorPlaneta.py&lt;br&gt;│&amp;nbsp; ├── dados_JSON_planetas/&lt;br&gt;│&amp;nbsp; ├── ModeloAtmosferico.py&lt;br&gt;│&amp;nbsp; ├── ModeloGravidadePlanetaAxisimetrico.py&lt;br&gt;│&amp;nbsp;&amp;nbsp;└── Planeta.py&lt;/span&gt;&lt;/font&gt;" style="text;whiteSpace=wrap;html=1;labelBackgroundColor=none;rounded=0;fontColor=#46495D;" vertex="1" parent="150">
          <mxGeometry x="18" width="386" height="193" as="geometry" />
        </mxCell>
      </root>
    </mxGraphModel>
  </diagram>
</mxfile>
